<svg width="20" height="12" viewBox="0 0 20 12" fill="none" xmlns="http://www.w3.org/2000/svg">
<path d="M12.8594 0.897629H17.5352V2.032H12.8594V0.897629ZM8.17422 5.3859C9.20781 4.89137 9.74922 4.13903 9.74922 2.97653C9.74922 0.677318 8.03828 0.119507 6.0625 0.119507H0.625V11.6601H6.21484C8.31016 11.6601 10.2766 10.6523 10.2766 8.30855C10.2766 6.86011 9.59219 5.78902 8.17422 5.3859ZM3.16094 2.08825H5.53984C6.45625 2.08825 7.27891 2.34372 7.27891 3.40778C7.27891 4.38746 6.63906 4.78121 5.73203 4.78121H3.16094V2.08825ZM5.86797 9.70073H3.15859V6.52261H5.92188C7.0375 6.52261 7.74297 6.98902 7.74297 8.17027C7.74297 9.33276 6.90156 9.70073 5.86797 9.70073ZM19.3633 7.60308C19.3633 5.13043 17.9172 3.07028 15.3016 3.07028C12.7586 3.07028 11.0289 4.98512 11.0289 7.49527C11.0289 10.0968 12.6672 11.8828 15.3016 11.8828C17.2961 11.8828 18.5875 10.9851 19.2086 9.07026H17.1859C16.9656 9.78511 16.0703 10.1601 15.3742 10.1601C14.0289 10.1601 13.3258 9.37261 13.3258 8.03433H19.3469C19.3539 7.89605 19.3633 7.75074 19.3633 7.60308ZM13.3258 6.5859C13.3984 5.48668 14.132 4.79996 15.2289 4.79996C16.382 4.79996 16.9586 5.47731 17.0594 6.5859H13.3258Z" fill="white"/>
</svg>
