<svg width="34" height="34" viewBox="0 0 34 34" fill="none" xmlns="http://www.w3.org/2000/svg">
<path d="M17 3.66667C13.4638 3.66667 10.0724 5.07142 7.57195 7.57191C5.07147 10.0724 3.66671 13.4638 3.66671 17C3.66671 20.5362 5.07147 23.9276 7.57195 26.4281C10.0724 28.9286 13.4638 30.3333 17 30.3333C20.5363 30.3333 23.9276 28.9286 26.4281 26.4281C28.9286 23.9276 30.3334 20.5362 30.3334 17C30.3334 13.4638 28.9286 10.0724 26.4281 7.57191C23.9276 5.07142 20.5363 3.66667 17 3.66667ZM0.333374 17C0.333374 7.795 7.79504 0.333332 17 0.333332C26.205 0.333332 33.6667 7.795 33.6667 17C33.6667 26.205 26.205 33.6667 17 33.6667C7.79504 33.6667 0.333374 26.205 0.333374 17ZM24.7734 11.5883C25.1034 11.882 25.3033 12.2946 25.3292 12.7355C25.3551 13.1765 25.205 13.6097 24.9117 13.94L16.0234 23.94C15.867 24.116 15.6751 24.2568 15.4604 24.3533C15.2457 24.4497 15.0129 24.4996 14.7775 24.4996C14.5421 24.4996 14.3094 24.4497 14.0947 24.3533C13.8799 24.2568 13.6881 24.116 13.5317 23.94L9.08837 18.94C8.8119 18.6074 8.67554 18.1804 8.70807 17.7492C8.74061 17.3179 8.9395 16.9162 9.26274 16.6289C9.58598 16.3415 10.0082 16.1911 10.4403 16.2094C10.8724 16.2276 11.2805 16.4131 11.5784 16.7267L14.7784 20.325L22.4217 11.725C22.7156 11.3953 23.1283 11.1957 23.5693 11.17C24.0102 11.1444 24.4433 11.2949 24.7734 11.5883Z" fill="#385975"/>
</svg>
