<svg width="20" height="20" viewBox="0 0 20 20" fill="none" xmlns="http://www.w3.org/2000/svg">
<path d="M10 5.19298C7.33986 5.19298 5.19298 7.33986 5.19298 10C5.19298 12.6602 7.33986 14.807 10 14.807C12.6602 14.807 14.807 12.6602 14.807 10C14.807 7.33986 12.6602 5.19298 10 5.19298ZM10 13.1242C8.2797 13.1242 6.8758 11.7203 6.8758 10C6.8758 8.2797 8.2797 6.87579 10 6.87579C11.7203 6.87579 13.1242 8.2797 13.1242 10C13.1242 11.7203 11.7203 13.1242 10 13.1242ZM15.0039 3.87579C14.3828 3.87579 13.8813 4.37736 13.8813 4.99845C13.8813 5.61954 14.3828 6.12111 15.0039 6.12111C15.625 6.12111 16.1266 5.62189 16.1266 4.99845C16.1268 4.85097 16.0978 4.7049 16.0415 4.56861C15.9851 4.43232 15.9025 4.30849 15.7982 4.2042C15.6939 4.09992 15.5701 4.01723 15.4338 3.96088C15.2975 3.90452 15.1514 3.87561 15.0039 3.87579ZM19.3703 10C19.3703 8.70626 19.382 7.42423 19.3094 6.13283C19.2367 4.63283 18.8945 3.30158 17.7977 2.2047C16.6985 1.10548 15.3695 0.765639 13.8695 0.692982C12.5758 0.620326 11.2938 0.632045 10.0024 0.632045C8.70861 0.632045 7.42658 0.620326 6.13517 0.692982C4.63517 0.765639 3.30392 1.10783 2.20705 2.2047C1.10783 3.30392 0.767985 4.63283 0.695328 6.13283C0.622672 7.42658 0.634391 8.70861 0.634391 10C0.634391 11.2914 0.622672 12.5758 0.695328 13.8672C0.767985 15.3672 1.11017 16.6985 2.20705 17.7953C3.30627 18.8945 4.63517 19.2344 6.13517 19.307C7.42892 19.3797 8.71095 19.368 10.0024 19.368C11.2961 19.368 12.5781 19.3797 13.8695 19.307C15.3695 19.2344 16.7008 18.8922 17.7977 17.7953C18.8969 16.6961 19.2367 15.3672 19.3094 13.8672C19.3844 12.5758 19.3703 11.2938 19.3703 10ZM17.3078 15.5266C17.1367 15.9531 16.9305 16.2719 16.6 16.6C16.2695 16.9305 15.9531 17.1367 15.5266 17.3078C14.2938 17.7977 11.3664 17.6875 10 17.6875C8.63361 17.6875 5.70392 17.7977 4.47111 17.3102C4.04455 17.1391 3.7258 16.9328 3.39767 16.6024C3.0672 16.2719 2.86095 15.9555 2.68986 15.5289C2.20236 14.2938 2.31252 11.3664 2.31252 10C2.31252 8.63361 2.20236 5.70392 2.68986 4.47111C2.86095 4.04454 3.0672 3.72579 3.39767 3.39767C3.72814 3.06954 4.04455 2.86095 4.47111 2.68986C5.70392 2.20236 8.63361 2.31251 10 2.31251C11.3664 2.31251 14.2961 2.20236 15.5289 2.68986C15.9555 2.86095 16.2742 3.0672 16.6024 3.39767C16.9328 3.72814 17.1391 4.04454 17.3102 4.47111C17.7977 5.70392 17.6875 8.63361 17.6875 10C17.6875 11.3664 17.7977 14.2938 17.3078 15.5266Z" fill="white"/>
</svg>
