<svg width="20" height="12" fill="none" xmlns="http://www.w3.org/2000/svg"><path d="M12.86.898h4.675v1.134H12.86V.898zM8.173 5.386C9.208 4.89 9.75 4.139 9.75 2.976 9.75.678 8.04.12 6.062.12H.625v11.54h5.59c2.095 0 4.062-1.008 4.062-3.351 0-1.449-.685-2.52-2.103-2.923zM3.161 2.088H5.54c.916 0 1.739.256 1.739 1.32 0 .98-.64 1.373-1.547 1.373H3.161V2.088zm2.707 7.613h-2.71V6.523h2.764c1.115 0 1.821.466 1.821 1.647 0 1.163-.841 1.53-1.875 1.53zm13.495-2.098c0-2.473-1.446-4.533-4.061-4.533-2.543 0-4.273 1.915-4.273 4.425 0 2.602 1.638 4.388 4.273 4.388 1.994 0 3.285-.898 3.907-2.813h-2.023c-.22.715-1.116 1.09-1.812 1.09-1.345 0-2.048-.787-2.048-2.126h6.02c.008-.138.017-.283.017-.43zm-6.037-1.017c.072-1.1.806-1.786 1.903-1.786 1.153 0 1.73.677 1.83 1.786h-3.733z" fill="#fff"/></svg>